<mxfile host="app.diagrams.net" modified="2023-12-02T15:35:02.911Z" agent="Mozilla/5.0 (Windows NT 10.0; Win64; x64; rv:120.0) Gecko/20100101 Firefox/120.0" etag="YGUTptDFzEYuokRqwc-r" version="22.1.5" type="github">
  <diagram name="Page-1" id="iv4guCwm0LoyRA_EEI2z">
    <mxGraphModel dx="1275" dy="472" grid="0" gridSize="10" guides="1" tooltips="1" connect="1" arrows="1" fold="1" page="0" pageScale="1" pageWidth="850" pageHeight="1100" background="#000000" math="0" shadow="0">
      <root>
        <mxCell id="0" />
        <mxCell id="1" parent="0" />
        <mxCell id="CskqQs5SDKcCrog3nOrW-3" value="Infra red source" style="rounded=0;whiteSpace=wrap;html=1;fillColor=#0050ef;strokeColor=#001DBC;fontColor=#ffffff;" vertex="1" parent="1">
          <mxGeometry x="-65" y="219" width="155" height="84" as="geometry" />
        </mxCell>
        <mxCell id="CskqQs5SDKcCrog3nOrW-4" value="" style="rounded=0;whiteSpace=wrap;html=1;fillColor=#647687;strokeColor=#314354;fontColor=#ffffff;" vertex="1" parent="1">
          <mxGeometry x="137" y="119.5" width="327" height="270" as="geometry" />
        </mxCell>
        <mxCell id="CskqQs5SDKcCrog3nOrW-6" value="" style="ellipse;whiteSpace=wrap;html=1;aspect=fixed;fillColor=none;" vertex="1" parent="1">
          <mxGeometry x="259" y="214" width="80" height="80" as="geometry" />
        </mxCell>
        <mxCell id="CskqQs5SDKcCrog3nOrW-7" value="" style="ellipse;whiteSpace=wrap;html=1;aspect=fixed;fillColor=none;" vertex="1" parent="1">
          <mxGeometry x="261" y="216" width="76" height="76" as="geometry" />
        </mxCell>
        <mxCell id="CskqQs5SDKcCrog3nOrW-8" value="" style="ellipse;whiteSpace=wrap;html=1;aspect=fixed;shadow=0;fillColor=none;" vertex="1" parent="1">
          <mxGeometry x="263" y="218" width="72" height="72" as="geometry" />
        </mxCell>
        <mxCell id="CskqQs5SDKcCrog3nOrW-9" value="" style="curved=1;endArrow=classic;html=1;rounded=0;strokeColor=#7A7A00;entryX=-0.007;entryY=0.353;entryDx=0;entryDy=0;entryPerimeter=0;" edge="1" parent="1">
          <mxGeometry width="50" height="50" relative="1" as="geometry">
            <mxPoint x="93.29" y="266.19" as="sourcePoint" />
            <mxPoint x="137.001" y="218.00000000000006" as="targetPoint" />
            <Array as="points">
              <mxPoint x="118" y="257" />
              <mxPoint x="85.29" y="239.19" />
            </Array>
          </mxGeometry>
        </mxCell>
        <mxCell id="CskqQs5SDKcCrog3nOrW-12" value="" style="endArrow=none;html=1;rounded=0;entryX=0.5;entryY=0;entryDx=0;entryDy=0;exitX=0;exitY=0.363;exitDx=0;exitDy=0;exitPerimeter=0;" edge="1" parent="1" source="CskqQs5SDKcCrog3nOrW-4" target="CskqQs5SDKcCrog3nOrW-8">
          <mxGeometry width="50" height="50" relative="1" as="geometry">
            <mxPoint x="183" y="289" as="sourcePoint" />
            <mxPoint x="233" y="239" as="targetPoint" />
          </mxGeometry>
        </mxCell>
        <mxCell id="CskqQs5SDKcCrog3nOrW-13" value="" style="endArrow=none;html=1;rounded=0;entryX=1;entryY=0.651;entryDx=0;entryDy=0;exitX=0;exitY=0.363;exitDx=0;exitDy=0;exitPerimeter=0;entryPerimeter=0;" edge="1" parent="1" target="CskqQs5SDKcCrog3nOrW-4">
          <mxGeometry width="50" height="50" relative="1" as="geometry">
            <mxPoint x="298" y="294" as="sourcePoint" />
            <mxPoint x="460" y="294" as="targetPoint" />
          </mxGeometry>
        </mxCell>
        <mxCell id="CskqQs5SDKcCrog3nOrW-14" value="" style="curved=1;endArrow=classic;html=1;rounded=0;strokeColor=#7A7A00;entryX=-0.007;entryY=0.353;entryDx=0;entryDy=0;entryPerimeter=0;" edge="1" parent="1">
          <mxGeometry width="50" height="50" relative="1" as="geometry">
            <mxPoint x="465" y="294" as="sourcePoint" />
            <mxPoint x="508.711" y="245.81000000000006" as="targetPoint" />
            <Array as="points">
              <mxPoint x="489.71" y="284.81" />
              <mxPoint x="457" y="267" />
            </Array>
          </mxGeometry>
        </mxCell>
        <mxCell id="CskqQs5SDKcCrog3nOrW-15" value="Spectrometer" style="rounded=0;whiteSpace=wrap;html=1;fillColor=#3399FF;strokeColor=#3399FF;" vertex="1" parent="1">
          <mxGeometry x="511" y="201" width="155" height="84" as="geometry" />
        </mxCell>
        <mxCell id="CskqQs5SDKcCrog3nOrW-16" value="Mopere X" style="rounded=0;whiteSpace=wrap;html=1;fillColor=none;strokeColor=none;" vertex="1" parent="1">
          <mxGeometry x="109" y="102" width="120" height="60" as="geometry" />
        </mxCell>
        <mxCell id="CskqQs5SDKcCrog3nOrW-17" value="&lt;font color=&quot;#7a7a00&quot;&gt;Pigtail&lt;/font&gt;" style="rounded=0;whiteSpace=wrap;html=1;fillColor=none;strokeColor=none;" vertex="1" parent="1">
          <mxGeometry x="97" y="226" width="42" height="29" as="geometry" />
        </mxCell>
        <mxCell id="CskqQs5SDKcCrog3nOrW-18" value="&lt;font color=&quot;#7a7a00&quot;&gt;Pigtail&lt;/font&gt;" style="rounded=0;whiteSpace=wrap;html=1;fillColor=none;strokeColor=none;" vertex="1" parent="1">
          <mxGeometry x="475" y="258" width="39" height="24" as="geometry" />
        </mxCell>
      </root>
    </mxGraphModel>
  </diagram>
</mxfile>
